<svg id="Layer_1" data-name="Layer 1" xmlns="http://www.w3.org/2000/svg" width="70" height="13" viewBox="0 0 70 13">
    <defs>
        <style>.cls-1{fill:#ff9800;}</style>
    </defs>
    <title>rating-3_4</title>
    <path class="cls-1"
          d="M69.12,5.37c0-.39-.29-.63-.72-.7L67.16,4.5l-.85-.12-.62-.09L65,4.18l-.5-1-.4-.82-.26-.52-.37-.75a.72.72,0,0,0-1.37,0l-.73,1.47L61,3.28l-.44.9-1,.14-.81.12-.66.1-1,.14c-.43.07-.72.3-.72.7a.86.86,0,0,0,.3.61h0l1.79,1.74.69.67-.59,3.42a1.56,1.56,0,0,0,0,.19.79.79,0,0,0,.15.47.62.62,0,0,0,.52.26.92.92,0,0,0,.46-.13L60.86,12l1.07-.56.41-.21.42-.22.36.19.36.19,1,.5.11.06,1.27.67a1,1,0,0,0,.47.13.63.63,0,0,0,.53-.26A.8.8,0,0,0,67,12a1.37,1.37,0,0,0,0-.21L66.34,8.4,68.84,6A.88.88,0,0,0,69.12,5.37Zm-.81.08L65.69,8l-.14.14v.19l.62,3.59h0l-1.28-.67-.11-.06-1-.5-.36-.19-.53-.28-.17-.09-.17.09-.59.31-.41.21-1.07.56-1.15.7h0L60,8.4V8.21L59.81,8,59,7.2,57.2,5.46h0l1-.14.66-.1.81-.12,1.18-.17h.19l.09-.17.53-1.07L62,2.87l.73-1.48h0l.37.75.26.52.4.82.59,1.19.09.17h.19l.9.13.62.09.85.12,1.24.18h.06Z"/>
    <path class="cls-1"
          d="M12.64,4.68l-1-.14L11,4.45l-.81-.12-1-.14-.44-.9-.36-.74L7.67,1.08a.72.72,0,0,0-1.37,0l-.37.75-.26.52-.4.82-.5,1L4,4.29l-.62.09-.85.12-1.24.18c-.43.07-.72.3-.72.7A.88.88,0,0,0,.89,6l2.5,2.4L2.8,11.81a1.37,1.37,0,0,0,0,.21.8.8,0,0,0,.14.47.63.63,0,0,0,.53.26,1,1,0,0,0,.47-.13L5.21,12l.11-.06,1-.5.36-.19L7,11l.42.22.41.21L8.88,12l1.17.62a.92.92,0,0,0,.46.13.62.62,0,0,0,.52-.26.79.79,0,0,0,.15-.47,1.55,1.55,0,0,0,0-.19L10.57,8.4l.69-.67L13.05,6h0a.86.86,0,0,0,.3-.61A.74.74,0,0,0,12.64,4.68Z"/>
    <path class="cls-1"
          d="M26.58,4.68l-1-.14-.66-.1-.81-.12-1-.14-.44-.9-.36-.74-.73-1.47a.72.72,0,0,0-1.37,0l-.37.75-.26.52-.4.82-.5,1-.71.1-.62.09-.85.12-1.24.18c-.43.07-.72.3-.72.7a.88.88,0,0,0,.28.6l2.5,2.43-.59,3.41a1.37,1.37,0,0,0,0,.21.8.8,0,0,0,.14.47.63.63,0,0,0,.53.26,1,1,0,0,0,.47-.13l1.27-.67.11-.06,1-.5.36-.19L21,11l.42.22.41.21,1.07.56L24,12.6a.92.92,0,0,0,.46.13.62.62,0,0,0,.52-.26.79.79,0,0,0,.15-.47,1.55,1.55,0,0,0,0-.19L24.52,8.4l.69-.67L27,6h0a.86.86,0,0,0,.3-.61A.76.76,0,0,0,26.58,4.68Z"/>
    <path class="cls-1"
          d="M40.53,4.68l-1-.14-.66-.1-.81-.12-1-.14-.44-.9-.36-.74-.73-1.47a.72.72,0,0,0-1.37,0l-.37.75-.26.52-.4.82-.5,1-.71.1-.62.09-.85.12-1.24.18c-.43.07-.72.3-.72.7a.88.88,0,0,0,.28.6l2.5,2.43-.59,3.41a1.37,1.37,0,0,0,0,.21.8.8,0,0,0,.14.47.63.63,0,0,0,.53.26,1,1,0,0,0,.47-.13l1.27-.67.11-.06,1-.5.36-.19.36-.19.42.22.41.21,1.07.56L38,12.6a.92.92,0,0,0,.46.13.62.62,0,0,0,.52-.26.79.79,0,0,0,.15-.47,1.55,1.55,0,0,0,0-.19L38.47,8.4l.69-.67L40.95,6h0a.86.86,0,0,0,.3-.61A.76.76,0,0,0,40.53,4.68Z"/>
    <path class="cls-1"
          d="M54.6,4.68l-1-.14-.65-.09-.81-.12-1-.14-.44-.9-.36-.74-.73-1.47a.72.72,0,0,0-1.37,0l-.37.75-.26.52-.4.82-.5,1-.71.1-.62.09-.85.12-1.24.18c-.43.07-.72.3-.72.7a.88.88,0,0,0,.28.6l2.5,2.43-.59,3.41a1.37,1.37,0,0,0,0,.21.8.8,0,0,0,.14.47.63.63,0,0,0,.53.26,1,1,0,0,0,.47-.13l1.27-.67.11-.06,1-.5.36-.19.31-.19.42.22.41.21,1.07.56,1.17.62a.92.92,0,0,0,.46.13.62.62,0,0,0,.52-.26.79.79,0,0,0,.15-.47,1.55,1.55,0,0,0,0-.19L52.54,8.4l.69-.67L55,6h0a.86.86,0,0,0,.3-.61C55.32,5,55,4.75,54.6,4.68ZM52.71,7.21l-.82.8-.14.14v.19l.62,3.6h0l-1.19-.62-1.07-.56-.41-.21-.59-.31-.16-.07-.17.09-.35.18v-8l.12-.25.4-.78h0l.73,1.48.36.74.53,1.07.09.17h.19L52,5l.81.12.66.1,1,.14h0Z"/>
</svg>
