<svg id="Layer_1" data-name="Layer 1" xmlns="http://www.w3.org/2000/svg" width="70" height="13" viewBox="0 0 70 13">
    <defs>
        <style>.cls-1{fill:#ff9800;}</style>
    </defs>
    <title>rating-4_3</title>
    <path class="cls-1"
          d="M12.64,4.68l-1-.14L11,4.45l-.81-.12-1-.14-.44-.9-.36-.74L7.67,1.08a.72.72,0,0,0-1.37,0l-.37.75-.26.52-.4.82-.5,1L4,4.29l-.62.09-.85.12-1.24.18c-.43.07-.72.3-.72.7A.88.88,0,0,0,.89,6l2.5,2.4L2.8,11.81a1.37,1.37,0,0,0,0,.21.8.8,0,0,0,.14.47.63.63,0,0,0,.53.26,1,1,0,0,0,.47-.13L5.21,12l.11-.06,1-.5.36-.19L7,11l.42.22.41.21L8.88,12l1.17.62a.92.92,0,0,0,.46.13.62.62,0,0,0,.52-.26.79.79,0,0,0,.15-.47,1.55,1.55,0,0,0,0-.19L10.57,8.4l.69-.67L13.05,6h0a.86.86,0,0,0,.3-.61A.74.74,0,0,0,12.64,4.68Z"/>
    <path class="cls-1"
          d="M26.58,4.68l-1-.14-.66-.1-.81-.12-1-.14-.44-.9-.36-.74-.73-1.47a.72.72,0,0,0-1.37,0l-.37.75-.26.52-.4.82-.5,1-.71.1-.62.09-.85.12-1.24.18c-.43.07-.72.3-.72.7a.88.88,0,0,0,.28.6l2.5,2.43-.59,3.41a1.37,1.37,0,0,0,0,.21.8.8,0,0,0,.14.47.63.63,0,0,0,.53.26,1,1,0,0,0,.47-.13l1.27-.67.11-.06,1-.5.36-.19L21,11l.42.22.41.21L22.9,12l1.1.61a.92.92,0,0,0,.46.13.62.62,0,0,0,.52-.26.79.79,0,0,0,.15-.47,1.55,1.55,0,0,0,0-.19L24.52,8.4l.69-.67L27,6h0a.86.86,0,0,0,.3-.61A.76.76,0,0,0,26.58,4.68Z"/>
    <path class="cls-1"
          d="M40.53,4.68l-1-.14-.66-.1-.81-.12-1-.14-.44-.9-.36-.74-.73-1.47a.72.72,0,0,0-1.37,0l-.37.75-.26.52-.4.82-.5,1-.71.1-.62.09-.85.12-1.24.18c-.43.07-.72.3-.72.7a.88.88,0,0,0,.28.6l2.5,2.43-.59,3.41a1.37,1.37,0,0,0,0,.21.8.8,0,0,0,.14.47.63.63,0,0,0,.53.26,1,1,0,0,0,.47-.13l1.27-.67.11-.06,1-.5.36-.19.36-.19.42.22.41.21,1.07.56L38,12.6a.92.92,0,0,0,.46.13.62.62,0,0,0,.52-.26.79.79,0,0,0,.15-.47,1.55,1.55,0,0,0,0-.19L38.47,8.4l.69-.67L41,6h0a.86.86,0,0,0,.3-.61A.76.76,0,0,0,40.53,4.68Z"/>
    <path class="cls-1"
          d="M54.48,4.68l-1-.14-.66-.1L52,4.32l-1-.14-.44-.9-.36-.74-.73-1.47a.72.72,0,0,0-1.37,0l-.37.75-.26.52-.4.82-.5,1-.71.1-.62.09-.85.12-1.24.18c-.43.07-.72.3-.72.7a.88.88,0,0,0,.28.6l2.5,2.43-.59,3.41a1.37,1.37,0,0,0,0,.21.8.8,0,0,0,.14.47.63.63,0,0,0,.53.26,1,1,0,0,0,.47-.13L47,11.93l.11-.06,1-.5.36-.19.36-.19.42.22.41.21,1.07.56L52,12.6a.92.92,0,0,0,.46.13.62.62,0,0,0,.52-.26.79.79,0,0,0,.15-.47,1.55,1.55,0,0,0,0-.19L52.42,8.4l.69-.67L54.9,6h0a.86.86,0,0,0,.3-.61A.76.76,0,0,0,54.48,4.68Z"/>
    <path class="cls-1"
          d="M69.27,5.37c0-.39-.29-.63-.72-.7L67.31,4.5l-.85-.12-.62-.09-.71-.1-.5-1-.4-.82L64,1.85l-.37-.75a.72.72,0,0,0-1.37,0l-.73,1.47-.36.74-.44.9-1,.14-.8.09-.66.1-1,.14c-.43.07-.72.3-.72.7a.86.86,0,0,0,.3.61h0l1.79,1.74.69.67-.59,3.42a1.55,1.55,0,0,0,0,.19.79.79,0,0,0,.15.47.62.62,0,0,0,.52.26.92.92,0,0,0,.46-.13L61,12l1.07-.56.41-.21L62.9,11l.36.19.36.19,1,.5.11.06,1.27.67a1,1,0,0,0,.47.13.63.63,0,0,0,.53-.26.8.8,0,0,0,.1-.48,1.37,1.37,0,0,0,0-.21L66.49,8.4,69,6A.88.88,0,0,0,69.27,5.37ZM65.84,8l-.14.14v.19l.62,3.59h0L65,11.25H64.9l-1-.5-.36-.19L63,10.28l-.11-.09-.17.09-.59.31-.39.2V3.61l.36-.74L62.9,1.4h0l.37.75.26.52.4.82.59,1.19.09.17h.19l.9.13.62.09.85.12,1.24.18h.06Z"/>
</svg>
